RobotoSerifText-RegularCond 02r.ufo
<glyph name="A" format="2">
  <advance width="580"/>
  <unicode hex="0041"/>
  <guideline x="354.3837890625" y="335.2265625" angle="15.239578757815517" identifier="3MhP6lo4Vo"/>
  <guideline x="197.078125" y="357.2880859375" angle="344.82708465447473" identifier="mDNSHjJBYa"/>
  <anchor x="289" y="721" name="top"/>
  <anchor x="494" y="0" name="right"/>
  <anchor x="289" y="0" name="bottom"/>
  <outline>
    <contour>
      <point x="149.0" y="299.0" type="line"/>
      <point x="149.0" y="248.0" type="line"/>
      <point x="395.0" y="248.0" type="line"/>
      <point x="395.0" y="299.0" type="line"/>
    </contour>
    <contour>
      <point x="265.0" y="678.0" type="line"/>
      <point x="435.0" y="54.0" type="line"/>
      <point x="435.0" y="47.0"/>
      <point x="399.0" y="44.0"/>
      <point x="369.0" y="44.0" type="curve" smooth="yes"/>
      <point x="351.0" y="44.0" type="line"/>
      <point x="351.0" y="0.0" type="line"/>
      <point x="573.0" y="0.0" type="line"/>
      <point x="573.0" y="44.0" type="line"/>
      <point x="569.0" y="44.0" type="line"/>
      <point x="542.0" y="44.0"/>
      <point x="524.0" y="46.0"/>
      <point x="517.0" y="72.0" type="curve" smooth="yes"/>
      <point x="342.0" y="710.0" type="line"/>
      <point x="238.0" y="710.0" type="line"/>
      <point x="68.0" y="87.0" type="line" smooth="yes"/>
      <point x="58.0" y="50.0"/>
      <point x="40.0" y="44.0"/>
      <point x="11.0" y="44.0" type="curve"/>
      <point x="7.0" y="44.0" type="line"/>
      <point x="7.0" y="0.0" type="line"/>
      <point x="194.0" y="0.0" type="line"/>
      <point x="194.0" y="44.0" type="line"/>
      <point x="183.0" y="44.0" type="line" smooth="yes"/>
      <point x="152.0" y="44.0"/>
      <point x="117.0" y="51.0"/>
      <point x="117.0" y="62.0" type="curve"/>
      <point x="277.0" y="652.0" type="line"/>
    </contour>
  </outline>
</glyph>
<glyph name="E" format="2">
  <advance width="524"/>
  <unicode hex="0045"/>
  <guideline x="281.18017578125" y="53.0" angle="90.0" identifier="3qhvg1mv55"/>
  <anchor x="324" y="741" name="top"/>
  <anchor x="388" y="0" name="right"/>
  <anchor x="324" y="0" name="bottom"/>
  <outline>
    <contour>
      <point x="478.0" y="211.0" type="line"/>
      <point x="427.0" y="211.0" type="line"/>
      <point x="419.0" y="96.0" type="line" smooth="yes"/>
      <point x="416.0" y="60.0"/>
      <point x="387.0" y="53.0"/>
      <point x="317.0" y="53.0" type="curve" smooth="yes"/>
      <point x="201.0" y="53.0" type="line"/>
      <point x="201.0" y="657.0" type="line"/>
      <point x="306.0" y="657.0" type="line" smooth="yes"/>
      <point x="374.0" y="657.0"/>
      <point x="403.0" y="650.0"/>
      <point x="406.0" y="614.0" type="curve" smooth="yes"/>
      <point x="413.0" y="524.0" type="line"/>
      <point x="464.0" y="524.0" type="line"/>
      <point x="464.0" y="710.0" type="line"/>
      <point x="35.0" y="710.0" type="line"/>
      <point x="35.0" y="666.0" type="line"/>
      <point x="44.0" y="666.0" type="line" smooth="yes"/>
      <point x="83.0" y="666.0"/>
      <point x="111.0" y="659.0"/>
      <point x="111.0" y="630.0" type="curve" smooth="yes"/>
      <point x="111.0" y="80.0" type="line" smooth="yes"/>
      <point x="111.0" y="51.0"/>
      <point x="83.0" y="44.0"/>
      <point x="44.0" y="44.0" type="curve" smooth="yes"/>
      <point x="35.0" y="44.0" type="line"/>
      <point x="35.0" y="0.0" type="line"/>
      <point x="478.0" y="0.0" type="line"/>
    </contour>
    <contour>
      <point x="176.0" y="388.0" type="curve"/>
      <point x="176.0" y="340.0" type="line"/>
      <point x="244.00188830112475" y="337.04339616082063"/>
      <point x="312.33141991895815" y="333.99025235532474"/>
      <point x="380.0" y="332.0" type="curve"/>
      <point x="380.0" y="395.0" type="line"/>
      <point x="312.33106137089504" y="392.014605648716"/>
      <point x="244.00084012629378" y="389.9710388442404"/>
    </contour>
  </outline>
</glyph>
<glyph name="N" format="2">
  <advance width="654"/>
  <unicode hex="004E"/>
  <guideline x="313.15771484375" y="323.146484375" angle="24.14310829523546" identifier="NsuzPDmEsB"/>
  <guideline x="232" y="710" angle="294.2702732593095" identifier="Dy1LpcdUes"/>
  <anchor x="336" y="741" name="top"/>
  <anchor x="336" y="0" name="bottom"/>
  <outline>
    <contour>
      <point x="35.0" y="0.0" type="line"/>
      <point x="251.0" y="0.0" type="line"/>
      <point x="251.0" y="44.0" type="line"/>
      <point x="240.0" y="44.0" type="line" smooth="yes"/>
      <point x="206.0" y="44.0"/>
      <point x="167.0" y="52.0"/>
      <point x="167.0" y="59.0" type="curve" smooth="yes"/>
      <point x="167.0" y="678.0" type="line"/>
      <point x="158.0" y="674.0" type="line"/>
      <point x="460.0" y="0.0" type="line"/>
      <point x="550.0" y="0.0" type="line"/>
      <point x="550.0" y="625.0" type="line" smooth="yes"/>
      <point x="550.0" y="654.0"/>
      <point x="578.0" y="666.0"/>
      <point x="617.0" y="666.0" type="curve" smooth="yes"/>
      <point x="626.0" y="666.0" type="line"/>
      <point x="626.0" y="710.0" type="line"/>
      <point x="410.0" y="710.0" type="line"/>
      <point x="410.0" y="666.0" type="line"/>
      <point x="422.0" y="666.0" type="line" smooth="yes"/>
      <point x="456.0" y="666.0"/>
      <point x="494.0" y="658.0"/>
      <point x="494.0" y="651.0" type="curve" smooth="yes"/>
      <point x="494.0" y="79.0" type="line"/>
      <point x="509.0" y="88.0" type="line"/>
      <point x="230.0" y="710.0" type="line"/>
      <point x="35.0" y="710.0" type="line"/>
      <point x="35.0" y="666.0" type="line"/>
      <point x="44.0" y="666.0" type="line" smooth="yes"/>
      <point x="83.0" y="666.0"/>
      <point x="111.0" y="659.0"/>
      <point x="111.0" y="630.0" type="curve" smooth="yes"/>
      <point x="111.0" y="85.0" type="line" smooth="yes"/>
      <point x="111.0" y="56.0"/>
      <point x="83.0" y="44.0"/>
      <point x="44.0" y="44.0" type="curve" smooth="yes"/>
      <point x="35.0" y="44.0" type="line"/>
    </contour>
  </outline>
</glyph>
<glyph name="R" format="2">
  <advance width="579"/>
  <unicode hex="0052"/>
  <anchor x="330" y="741" name="top"/>
  <anchor x="330" y="0" name="bottom"/>
  <outline>
    <contour>
      <point x="294.0" y="323.0" type="line"/>
      <point x="377.0" y="337.0" type="line"/>
      <point x="479.0" y="76.0" type="line" smooth="yes"/>
      <point x="490.0" y="49.0"/>
      <point x="509.0" y="44.0"/>
      <point x="535.0" y="44.0" type="curve" smooth="yes"/>
      <point x="542.0" y="44.0" type="line"/>
      <point x="542.0" y="0.0" type="line"/>
      <point x="417.0" y="0.0" type="line"/>
    </contour>
    <contour>
      <point x="201.0" y="54.0" type="line" smooth="yes"/>
      <point x="201.0" y="47.0"/>
      <point x="235.0" y="44.0"/>
      <point x="262.0" y="44.0" type="curve" smooth="yes"/>
      <point x="272.0" y="44.0" type="line"/>
      <point x="272.0" y="0.0" type="line"/>
      <point x="35.0" y="0.0" type="line"/>
      <point x="35.0" y="44.0" type="line"/>
      <point x="44.0" y="44.0" type="line" smooth="yes"/>
      <point x="83.0" y="44.0"/>
      <point x="111.0" y="51.0"/>
      <point x="111.0" y="80.0" type="curve" smooth="yes"/>
      <point x="111.0" y="630.0" type="line" smooth="yes"/>
      <point x="111.0" y="659.0"/>
      <point x="83.0" y="666.0"/>
      <point x="44.0" y="666.0" type="curve" smooth="yes"/>
      <point x="35.0" y="666.0" type="line"/>
      <point x="35.0" y="710.0" type="line"/>
      <point x="285.0" y="710.0" type="line" smooth="yes"/>
      <point x="420.0" y="710.0"/>
      <point x="498.0" y="635.0"/>
      <point x="498.0" y="508.0" type="curve" smooth="yes"/>
      <point x="498.0" y="404.0"/>
      <point x="444.0" y="339.0"/>
      <point x="349.0" y="314.0" type="curve" smooth="yes"/>
      <point x="327.0" y="308.0"/>
      <point x="304.0" y="305.0"/>
      <point x="278.0" y="305.0" type="curve" smooth="yes"/>
      <point x="169.0" y="305.0" type="line"/>
      <point x="169.0" y="355.0" type="line"/>
      <point x="276.0" y="355.0" type="line" smooth="yes"/>
      <point x="364.0" y="355.0"/>
      <point x="405.0" y="411.0"/>
      <point x="405.0" y="508.0" type="curve" smooth="yes"/>
      <point x="405.0" y="605.0"/>
      <point x="362.0" y="657.0"/>
      <point x="279.0" y="657.0" type="curve" smooth="yes"/>
      <point x="201.0" y="657.0" type="line"/>
    </contour>
  </outline>
</glyph>
<glyph name="Z" format="2">
  <advance width="514"/>
  <unicode hex="005A"/>
  <anchor x="276" y="741" name="top"/>
  <anchor x="276" y="0" name="bottom"/>
  <outline>
    <contour>
      <point x="87.0" y="53.0" type="line"/>
      <point x="101.0" y="18.0" type="line"/>
      <point x="468.0" y="653.0" type="line"/>
      <point x="468.0" y="710.0" type="line"/>
      <point x="51.0" y="710.0" type="line"/>
      <point x="51.0" y="519.0" type="line"/>
      <point x="101.0" y="519.0" type="line"/>
      <point x="108.0" y="614.0" type="line" smooth="yes"/>
      <point x="110.0" y="650.0"/>
      <point x="140.0" y="657.0"/>
      <point x="208.0" y="657.0" type="curve" smooth="yes"/>
      <point x="411.0" y="657.0" type="line"/>
      <point x="394.0" y="681.0" type="line"/>
      <point x="37.0" y="60.0" type="line"/>
      <point x="37.0" y="0.0" type="line"/>
      <point x="474.0" y="0.0" type="line"/>
      <point x="474.0" y="208.0" type="line"/>
      <point x="422.0" y="208.0" type="line"/>
      <point x="414.0" y="96.0" type="line" smooth="yes"/>
      <point x="412.0" y="60.0"/>
      <point x="383.0" y="53.0"/>
      <point x="313.0" y="53.0" type="curve" smooth="yes"/>
    </contour>
  </outline>
</glyph>
<glyph name="underscore" format="2">
  <advance width="395"/>
  <unicode hex="005F"/>
  <outline>
    <contour>
      <point x="-4.0" y="-98.0" type="line"/>
      <point x="-4.0" y="-152.0" type="line"/>
      <point x="399.0" y="-152.0" type="line"/>
      <point x="399.0" y="-98.0" type="line"/>
    </contour>
  </outline>
</glyph>
<glyph name="grave" format="2">
  <advance width="412"/>
  <unicode hex="0060"/>
  <anchor x="181" y="531" name="_top"/>
  <outline>
    <contour>
      <point x="184.0" y="707.0" type="curve" smooth="yes"/>
      <point x="219.0" y="587.0" type="line"/>
      <point x="219.0" y="568.0" type="line"/>
      <point x="191.0" y="568.0" type="line"/>
      <point x="123.0" y="665.0" type="line" smooth="yes"/>
      <point x="105.0" y="685.0"/>
      <point x="94.0" y="705.0"/>
      <point x="94.0" y="722.0" type="curve" smooth="yes"/>
      <point x="94.0" y="742.0"/>
      <point x="110.0" y="758.0"/>
      <point x="133.0" y="758.0" type="curve" smooth="yes"/>
      <point x="156.0" y="758.0"/>
      <point x="173.0" y="741.0"/>
    </contour>
  </outline>
</glyph>
<glyph name="a" format="2">
  <advance width="453"/>
  <unicode hex="0061"/>
  <anchor x="203" y="508" name="top"/>
  <anchor x="361" y="-10" name="right"/>
  <anchor x="232" y="0" name="bottom"/>
  <outline>
    <contour>
      <point x="315.0" y="305.0" type="line"/>
      <point x="123.0" y="279.0"/>
      <point x="41.0" y="234.0"/>
      <point x="41.0" y="120.0" type="curve" smooth="yes"/>
      <point x="41.0" y="41.0"/>
      <point x="98.0" y="-10.0"/>
      <point x="171.0" y="-10.0" type="curve" smooth="yes"/>
      <point x="235.0" y="-10.0"/>
      <point x="289.0" y="36.0"/>
      <point x="317.0" y="125.0" type="curve"/>
      <point x="311.0" y="167.0" type="line"/>
      <point x="284.0" y="83.0"/>
      <point x="244.0" y="44.0"/>
      <point x="196.0" y="44.0" type="curve" smooth="yes"/>
      <point x="155.0" y="44.0"/>
      <point x="128.0" y="75.0"/>
      <point x="128.0" y="121.0" type="curve" smooth="yes"/>
      <point x="128.0" y="212.0"/>
      <point x="185.0" y="244.0"/>
      <point x="315.0" y="263.0" type="curve"/>
    </contour>
    <contour>
      <point x="302.0" y="0.0" type="line"/>
      <point x="442.0" y="0.0" type="line"/>
      <point x="442.0" y="41.0" type="line"/>
      <point x="442.0" y="41.0" type="line"/>
      <point x="405.0" y="41.0"/>
      <point x="378.0" y="48.0"/>
      <point x="378.0" y="77.0" type="curve" smooth="yes"/>
      <point x="378.0" y="374.0" type="line" smooth="yes"/>
      <point x="378.0" y="482.0"/>
      <point x="304.0" y="518.0"/>
      <point x="222.0" y="518.0" type="curve" smooth="yes"/>
      <point x="146.0" y="518.0"/>
      <point x="91.0" y="483.0"/>
      <point x="67.0" y="459.0" type="curve"/>
      <point x="67.0" y="361.0" type="line"/>
      <point x="146.0" y="361.0" type="line"/>
      <point x="146.0" y="460.0" type="line"/>
      <point x="123.0" y="450.0"/>
      <point x="105.0" y="429.0"/>
      <point x="112.0" y="400.0" type="curve"/>
      <point x="132.0" y="436.0"/>
      <point x="162.0" y="466.0"/>
      <point x="213.0" y="466.0" type="curve" smooth="yes"/>
      <point x="264.0" y="466.0"/>
      <point x="294.0" y="441.0"/>
      <point x="294.0" y="361.0" type="curve" smooth="yes"/>
      <point x="294.0" y="110.0" type="line"/>
      <point x="302.0" y="108.0" type="line"/>
    </contour>
  </outline>
</glyph>
<glyph name="b" format="2">
  <advance width="526"/>
  <unicode hex="0062"/>
  <outline>
    <contour>
      <point x="297.0" y="-10.0" type="curve" smooth="yes"/>
      <point x="412.005076142132" y="-10.0"/>
      <point x="489.0" y="89.0"/>
      <point x="489.0" y="257.0" type="curve" smooth="yes"/>
      <point x="489.0" y="424.0"/>
      <point x="415.0" y="518.0"/>
      <point x="304.0" y="518.0" type="curve" smooth="yes"/>
      <point x="237.2258064516129" y="518.0"/>
      <point x="198.655404088355" y="476.38738504596444"/>
      <point x="154.0" y="397.0" type="curve"/>
      <point x="154.0" y="321.0" type="line"/>
      <point x="191.81744084942292" y="414.5484063117304"/>
      <point x="233.15277777777777" y="466.0"/>
      <point x="293.0" y="466.0" type="curve" smooth="yes"/>
      <point x="361.7567567567568" y="466.0"/>
      <point x="399.0" y="395.0"/>
      <point x="399.0" y="257.0" type="curve" smooth="yes"/>
      <point x="399.0" y="118.0"/>
      <point x="361.7105263157895" y="42.0"/>
      <point x="290.0" y="42.0" type="curve" smooth="yes"/>
      <point x="232.12765957446808" y="42.0"/>
      <point x="190.82670263327424" y="89.44026898573571"/>
      <point x="154.0" y="183.0" type="curve"/>
      <point x="154.0" y="101.0" type="line"/>
      <point x="193.7107711511092" y="25.54953481289249"/>
      <point x="233.22972972972974" y="-10.0"/>
    </contour>
    <contour>
      <point x="83.0" y="646.0" type="curve" smooth="yes"/>
      <point x="83.0" y="-3.0" type="line"/>
      <point x="141.0" y="-3.0" type="line"/>
      <point x="161.0" y="110.0" type="line"/>
      <point x="170.0" y="122.0" type="line"/>
      <point x="170.0" y="735.0" type="line"/>
      <point x="17.0" y="735.0" type="line"/>
      <point x="17.0" y="693.0" type="line"/>
      <point x="26.0" y="691.0" type="line" smooth="yes"/>
      <point x="66.0" y="682.0"/>
      <point x="83.0" y="675.0"/>
    </contour>
  </outline>
</glyph>
<glyph name="f" format="2">
  <advance width="323"/>
  <unicode hex="0066"/>
  <outline>
    <contour>
      <point x="28.0" y="508.0" type="line"/>
      <point x="28.0" y="457.0" type="line"/>
      <point x="316.0" y="457.0" type="line"/>
      <point x="316.0" y="508.0" type="line"/>
    </contour>
    <contour>
      <point x="343.0" y="741.0" type="line"/>
      <point x="326.0" y="747.0"/>
      <point x="293.0" y="752.0"/>
      <point x="263.0" y="752.0" type="curve" smooth="yes"/>
      <point x="185.0" y="752.0"/>
      <point x="111.0" y="712.0"/>
      <point x="111.0" y="585.0" type="curve" smooth="yes"/>
      <point x="111.0" y="77.0" type="line" smooth="yes"/>
      <point x="111.0" y="48.0"/>
      <point x="85.0" y="41.0"/>
      <point x="43.0" y="41.0" type="curve" smooth="yes"/>
      <point x="33.0" y="41.0" type="line"/>
      <point x="33.0" y="0.0" type="line"/>
      <point x="283.0" y="0.0" type="line"/>
      <point x="283.0" y="41.0" type="line"/>
      <point x="273.0" y="41.0" type="line" smooth="yes"/>
      <point x="230.0" y="41.0"/>
      <point x="198.0" y="44.0"/>
      <point x="198.0" y="51.0" type="curve" smooth="yes"/>
      <point x="198.0" y="586.0" type="line" smooth="yes"/>
      <point x="198.0" y="672.0"/>
      <point x="224.0" y="701.0"/>
      <point x="272.0" y="701.0" type="curve" smooth="yes"/>
      <point x="300.0" y="701.0"/>
      <point x="326.0" y="692.0"/>
      <point x="343.0" y="682.0" type="curve"/>
    </contour>
  </outline>
</glyph>
<glyph name="h" format="2">
  <advance width="536"/>
  <unicode hex="0068"/>
  <anchor x="283" y="755" name="top"/>
  <anchor x="273" y="0" name="bottom"/>
  <outline>
    <contour>
      <point x="181.0" y="735.0" type="line"/>
      <point x="29.0" y="735.0" type="line"/>
      <point x="29.0" y="693.0" type="line"/>
      <point x="37.0" y="691.0" type="line" smooth="yes"/>
      <point x="77.0" y="681.0"/>
      <point x="94.0" y="675.0"/>
      <point x="94.0" y="646.0" type="curve" smooth="yes"/>
      <point x="94.0" y="77.0" type="line" smooth="yes"/>
      <point x="94.0" y="48.0"/>
      <point x="67.0" y="41.0"/>
      <point x="30.0" y="41.0" type="curve" smooth="yes"/>
      <point x="29.0" y="41.0" type="line"/>
      <point x="29.0" y="0.0" type="line"/>
      <point x="240.0" y="0.0" type="line"/>
      <point x="240.0" y="41.0" type="line"/>
      <point x="237.0" y="41.0" type="line" smooth="yes"/>
      <point x="216.0" y="41.0"/>
      <point x="181.0" y="44.0"/>
      <point x="181.0" y="51.0" type="curve"/>
    </contour>
    <contour>
      <point x="517.0" y="0.0" type="line"/>
      <point x="517.0" y="41.0" type="line"/>
      <point x="516.0" y="41.0" type="line" smooth="yes"/>
      <point x="479.0" y="41.0"/>
      <point x="452.0" y="48.0"/>
      <point x="452.0" y="77.0" type="curve" smooth="yes"/>
      <point x="452.0" y="374.0" type="line" smooth="yes"/>
      <point x="452.0" y="477.1489361702128"/>
      <point x="399.206106870229" y="518.0"/>
      <point x="319.0" y="518.0" type="curve" smooth="yes"/>
      <point x="248.91612903225808" y="518.0"/>
      <point x="198.0" y="471.0"/>
      <point x="166.0" y="397.0" type="curve"/>
      <point x="166.0" y="343.0" type="line"/>
      <point x="200.87540251377197" y="421.71876567394247"/>
      <point x="248.16058394160584" y="461.0"/>
      <point x="300.0" y="461.0" type="curve" smooth="yes"/>
      <point x="342.98387096774195" y="461.0"/>
      <point x="365.0" y="427.8965517241379"/>
      <point x="365.0" y="371.0" type="curve" smooth="yes"/>
      <point x="365.0" y="51.0" type="line" smooth="yes"/>
      <point x="365.0" y="44.0"/>
      <point x="330.0" y="41.0"/>
      <point x="308.0" y="41.0" type="curve" smooth="yes"/>
      <point x="307.0" y="41.0" type="line"/>
      <point x="307.0" y="0.0" type="line"/>
    </contour>
  </outline>
</glyph>
<glyph name="i" format="2">
  <advance width="265"/>
  <unicode hex="0069"/>
  <anchor x="141" y="508" name="top"/>
  <anchor x="187" y="-10" name="right"/>
  <anchor x="139" y="-10" name="bottom"/>
  <outline>
    <contour>
      <point x="135.0" y="627.0" type="curve" smooth="yes"/>
      <point x="168.0" y="627.0"/>
      <point x="191.0" y="648.0"/>
      <point x="191.0" y="683.0" type="curve" smooth="yes"/>
      <point x="191.0" y="718.0"/>
      <point x="168.0" y="739.0"/>
      <point x="135.0" y="739.0" type="curve" smooth="yes"/>
      <point x="103.0" y="739.0"/>
      <point x="79.0" y="718.0"/>
      <point x="79.0" y="683.0" type="curve" smooth="yes"/>
      <point x="79.0" y="648.0"/>
      <point x="103.0" y="627.0"/>
    </contour>
    <contour>
      <point x="181.0" y="508.0" type="line"/>
      <point x="30.0" y="508.0" type="line"/>
      <point x="30.0" y="466.0" type="line"/>
      <point x="38.0" y="464.0" type="line" smooth="yes"/>
      <point x="78.0" y="455.0"/>
      <point x="95.0" y="448.0"/>
      <point x="95.0" y="419.0" type="curve" smooth="yes"/>
      <point x="95.0" y="77.0" type="line" smooth="yes"/>
      <point x="95.0" y="48.0"/>
      <point x="68.0" y="41.0"/>
      <point x="31.0" y="41.0" type="curve" smooth="yes"/>
      <point x="30.0" y="41.0" type="line"/>
      <point x="30.0" y="0.0" type="line"/>
      <point x="247.0" y="0.0" type="line"/>
      <point x="247.0" y="41.0" type="line"/>
      <point x="246.0" y="41.0" type="line" smooth="yes"/>
      <point x="209.0" y="41.0"/>
      <point x="181.0" y="48.0"/>
      <point x="181.0" y="77.0" type="curve" smooth="yes"/>
    </contour>
  </outline>
</glyph>
<glyph name="n" format="2">
  <advance width="536"/>
  <unicode hex="006E"/>
  <anchor x="264" y="508" name="top"/>
  <anchor x="272" y="0" name="bottom"/>
  <outline>
    <contour>
      <point x="30.0" y="0.0" type="line" identifier="bnjIFnq2MC"/>
      <point x="239.0" y="0.0" type="line" identifier="FFUYzTtR8G"/>
      <point x="239.0" y="41.0" type="line" identifier="aXHDRsIzsX"/>
      <point x="236.0" y="41.0" type="line" smooth="yes" identifier="ZCIQcKac5U"/>
      <point x="215.0" y="41.0" identifier="aquR0mbsjs"/>
      <point x="181.0" y="44.0" identifier="QwuLzKYC8B"/>
      <point x="181.0" y="51.0" type="curve" smooth="yes" identifier="kSZugqKpDc"/>
      <point x="181.0" y="392.0" type="line" identifier="L2nJ5lGzsq"/>
      <point x="173.0" y="401.0" type="line" identifier="4pdAa37jHk"/>
      <point x="173.0" y="508.0" type="line" identifier="uFPoQ8nQVG"/>
      <point x="30.0" y="508.0" type="line" identifier="0bDuElsrqy"/>
      <point x="30.0" y="466.0" type="line" identifier="ixDSCyuGpb"/>
      <point x="38.0" y="464.0" type="line" smooth="yes" identifier="5znKa8bjwK"/>
      <point x="76.0" y="454.0" identifier="o4UOJcsWMG"/>
      <point x="94.0" y="448.0" identifier="bKeP1El3Jk"/>
      <point x="94.0" y="419.0" type="curve" smooth="yes" identifier="eIzzYtJo7x"/>
      <point x="94.0" y="77.0" type="line" smooth="yes" identifier="Hz2v0hMVcn"/>
      <point x="94.0" y="48.0" identifier="DnQl8zaT7H"/>
      <point x="68.0" y="41.0" identifier="30zywtyF97"/>
      <point x="31.0" y="41.0" type="curve" smooth="yes" identifier="SwY6Q87NZJ"/>
      <point x="30.0" y="41.0" type="line" identifier="adyOYvpoTN"/>
    </contour>
    <contour>
      <point x="517.0" y="0.0" type="line" identifier="hCOUJs82aB"/>
      <point x="517.0" y="41.0" type="line" identifier="vOtpHhYGM9"/>
      <point x="516.0" y="41.0" type="line" smooth="yes" identifier="wH8mfmTP68"/>
      <point x="478.0" y="41.0" identifier="uSPpGbyD0G"/>
      <point x="452.0" y="48.0" identifier="uzD8RS4s3Z"/>
      <point x="452.0" y="78.0" type="curve" smooth="yes" identifier="GYMl9VXGvN"/>
      <point x="452.0" y="374.0" type="line" smooth="yes" identifier="M0f7ogSNoJ"/>
      <point x="452.0" y="477.1489361702128" identifier="LxkXhrxCCV"/>
      <point x="398.80916030534354" y="518.0" identifier="UOoa7VLb4s"/>
      <point x="318.0" y="518.0" type="curve" smooth="yes" identifier="QmIa3vFN3d"/>
      <point x="246.41290322580647" y="518.0" identifier="AiG4kMJQjd"/>
      <point x="198.0" y="475.0" identifier="yfMDqVBMsH"/>
      <point x="166.0" y="404.0" type="curve" identifier="ZOfkP8G9O7"/>
      <point x="166.0" y="343.0" type="line" identifier="IdQPgYbtRy"/>
      <point x="200.87540251377197" y="421.71876567394247" identifier="kjTZRpyB0Z"/>
      <point x="248.16058394160584" y="461.0" identifier="CyTbZXTGjS"/>
      <point x="300.0" y="461.0" type="curve" smooth="yes" identifier="WIcp10Yym3"/>
      <point x="342.98387096774195" y="461.0" identifier="L7ADTWbIlq"/>
      <point x="365.0" y="427.8965517241379" identifier="YBkomQY2fB"/>
      <point x="365.0" y="371.0" type="curve" smooth="yes" identifier="N9LFDBOC2n"/>
      <point x="365.0" y="51.0" type="line" smooth="yes" identifier="L3q00IU8oq"/>
      <point x="365.0" y="44.0" identifier="eLu8tz9nzM"/>
      <point x="330.0" y="41.0" identifier="D7qqGRpbhY"/>
      <point x="308.0" y="41.0" type="curve" smooth="yes" identifier="poEoGlm1OP"/>
      <point x="307.0" y="41.0" type="line" identifier="9WUvsJVUi3"/>
      <point x="307.0" y="0.0" type="line" identifier="fIUHBlzk6t"/>
    </contour>
  </outline>
</glyph>
<glyph name="r" format="2">
  <advance width="345"/>
  <unicode hex="0072"/>
  <guideline x="298" y="518" angle="0" identifier="HH7tHhD1eW"/>
  <anchor x="188" y="508" name="top"/>
  <anchor x="134" y="0" name="bottom"/>
  <outline>
    <contour>
      <point x="30.0" y="0.0" type="line"/>
      <point x="259.0" y="0.0" type="line"/>
      <point x="259.0" y="41.0" type="line"/>
      <point x="246.0" y="41.0" type="line" smooth="yes"/>
      <point x="224.0" y="41.0"/>
      <point x="181.0" y="45.0"/>
      <point x="181.0" y="76.0" type="curve" smooth="yes"/>
      <point x="181.0" y="376.0" type="line"/>
      <point x="173.0" y="368.0" type="line"/>
      <point x="173.0" y="508.0" type="line"/>
      <point x="30.0" y="508.0" type="line"/>
      <point x="30.0" y="466.0" type="line"/>
      <point x="38.0" y="464.0" type="line" smooth="yes"/>
      <point x="76.0" y="454.0"/>
      <point x="94.0" y="448.0"/>
      <point x="94.0" y="419.0" type="curve" smooth="yes"/>
      <point x="94.0" y="77.0" type="line" smooth="yes"/>
      <point x="94.0" y="48.0"/>
      <point x="68.0" y="41.0"/>
      <point x="31.0" y="41.0" type="curve" smooth="yes"/>
      <point x="30.0" y="41.0" type="line"/>
    </contour>
    <contour>
      <point x="326.0" y="513.0" type="line"/>
      <point x="318.0" y="516.0"/>
      <point x="307.0" y="518.0"/>
      <point x="289.0" y="518.0" type="curve" smooth="yes"/>
      <point x="228.0" y="518.0"/>
      <point x="189.0" y="458.0"/>
      <point x="166.0" y="382.0" type="curve"/>
      <point x="166.0" y="321.0" type="line"/>
      <point x="195.0" y="401.0"/>
      <point x="218.0" y="440.0"/>
      <point x="270.0" y="440.0" type="curve" smooth="yes"/>
      <point x="289.0" y="440.0"/>
      <point x="310.0" y="436.0"/>
      <point x="326.0" y="427.0" type="curve"/>
    </contour>
  </outline>
</glyph>
<glyph name="s" format="2">
  <advance width="394"/>
  <unicode hex="0073"/>
  <anchor x="196" y="508" name="top"/>
  <anchor x="199" y="0" name="bottom"/>
  <outline>
    <contour>
      <point x="287.0" y="131.0" type="curve" smooth="yes"/>
      <point x="287.0" y="74.0"/>
      <point x="252.0" y="42.0"/>
      <point x="195.0" y="42.0" type="curve" smooth="yes"/>
      <point x="146.0" y="42.0"/>
      <point x="107.0" y="60.0"/>
      <point x="80.0" y="100.0" type="curve"/>
      <point x="71.0" y="77.0"/>
      <point x="72.0" y="54.0"/>
      <point x="106.0" y="32.0" type="curve"/>
      <point x="106.0" y="153.0" type="line"/>
      <point x="28.0" y="153.0" type="line"/>
      <point x="28.0" y="45.0" type="line"/>
      <point x="64.0" y="15.0"/>
      <point x="118.0" y="-10.0"/>
      <point x="196.0" y="-10.0" type="curve" smooth="yes"/>
      <point x="304.0" y="-10.0"/>
      <point x="367.0" y="55.0"/>
      <point x="367.0" y="139.0" type="curve" smooth="yes"/>
      <point x="367.0" y="238.0"/>
      <point x="295.0" y="263.0"/>
      <point x="227.0" y="284.0" type="curve" smooth="yes"/>
      <point x="170.0" y="303.0"/>
      <point x="115.0" y="318.0"/>
      <point x="115.0" y="383.0" type="curve" smooth="yes"/>
      <point x="115.0" y="431.0"/>
      <point x="142.0" y="466.0"/>
      <point x="197.0" y="466.0" type="curve" smooth="yes"/>
      <point x="239.0" y="466.0"/>
      <point x="274.0" y="449.0"/>
      <point x="292.0" y="417.0" type="curve"/>
      <point x="299.0" y="442.0"/>
      <point x="291.0" y="461.0"/>
      <point x="266.0" y="462.0" type="curve"/>
      <point x="266.0" y="371.0" type="line"/>
      <point x="342.0" y="371.0" type="line"/>
      <point x="342.0" y="474.0" type="line"/>
      <point x="323.0" y="492.0"/>
      <point x="275.0" y="518.0"/>
      <point x="197.0" y="518.0" type="curve" smooth="yes"/>
      <point x="97.0" y="518.0"/>
      <point x="38.0" y="459.0"/>
      <point x="38.0" y="372.0" type="curve" smooth="yes"/>
      <point x="38.0" y="270.0"/>
      <point x="113.0" y="243.0"/>
      <point x="180.0" y="222.0" type="curve" smooth="yes"/>
      <point x="237.0" y="204.0"/>
      <point x="287.0" y="190.0"/>
    </contour>
  </outline>
</glyph>
<glyph name="u" format="2">
  <advance width="510"/>
  <unicode hex="0075"/>
  <anchor x="230.0" y="508" name="top"/>
  <anchor x="395.0" y="0" name="right"/>
  <anchor x="227.0" y="0" name="bottom"/>
  <outline>
    <contour>
      <point x="160.0" y="508.0" type="line"/>
      <point x="7.0" y="508.0" type="line"/>
      <point x="7.0" y="466.0" type="line"/>
      <point x="16.0" y="464.0" type="line" smooth="yes"/>
      <point x="56.0" y="458.0"/>
      <point x="73.0" y="450.0"/>
      <point x="73.0" y="421.0" type="curve" smooth="yes"/>
      <point x="73.0" y="134.0" type="line" smooth="yes"/>
      <point x="73.0" y="30.851063829787222"/>
      <point x="124.77862595419847" y="-10.0"/>
      <point x="206.0" y="-10.0" type="curve" smooth="yes"/>
      <point x="273.10526315789474" y="-10.0"/>
      <point x="317.0" y="34.0"/>
      <point x="356.0" y="107.0" type="curve"/>
      <point x="356.0" y="167.0" type="line"/>
      <point x="320.134456487444" y="87.29879219432006"/>
      <point x="278.7686567164179" y="47.0"/>
      <point x="225.0" y="47.0" type="curve" smooth="yes"/>
      <point x="182.01612903225805" y="47.0"/>
      <point x="160.0" y="80.10344827586206"/>
      <point x="160.0" y="137.0" type="curve" smooth="yes"/>
    </contour>
    <contour>
      <point x="428.0" y="508.0" type="line"/>
      <point x="265.0" y="508.0" type="line"/>
      <point x="265.0" y="466.0" type="line"/>
      <point x="282.0" y="463.0" type="line" smooth="yes"/>
      <point x="322.0" y="456.0"/>
      <point x="341.0" y="450.0"/>
      <point x="341.0" y="421.0" type="curve" smooth="yes"/>
      <point x="341.0" y="117.0" type="line"/>
      <point x="349.0" y="107.0" type="line"/>
      <point x="349.0" y="0.0" type="line"/>
      <point x="494.0" y="0.0" type="line"/>
      <point x="494.0" y="41.0" type="line"/>
      <point x="492.0" y="41.0" type="line" smooth="yes"/>
      <point x="452.0" y="41.0"/>
      <point x="428.0" y="45.0"/>
      <point x="428.0" y="71.0" type="curve" smooth="yes"/>
    </contour>
  </outline>
</glyph>
<glyph name="dotaccent" format="2">
  <advance width="412"/>
  <unicode hex="02D9"/>
  <anchor x="206" y="526" name="_top"/>
  <outline>
    <contour>
      <point x="206.0" y="627.0" type="curve" smooth="yes"/>
      <point x="239.0" y="627.0"/>
      <point x="262.0" y="648.0"/>
      <point x="262.0" y="683.0" type="curve" smooth="yes"/>
      <point x="262.0" y="718.0"/>
      <point x="239.0" y="739.0"/>
      <point x="206.0" y="739.0" type="curve" smooth="yes"/>
      <point x="174.0" y="739.0"/>
      <point x="150.0" y="718.0"/>
      <point x="150.0" y="683.0" type="curve" smooth="yes"/>
      <point x="150.0" y="648.0"/>
      <point x="174.0" y="627.0"/>
    </contour>
  </outline>
</glyph>
<glyph name="thai:baht" format="2">
  <advance width="462"/>
  <unicode hex="0E3F"/>
  <outline>
    <contour>
      <point x="247.0" y="396.0" type="curve"/>
      <point x="133.0" y="396.0" type="line"/>
      <point x="133.0" y="651.0" type="line"/>
      <point x="232.0" y="651.0" type="line"/>
      <point x="316.0" y="651.0"/>
      <point x="349.0" y="609.0"/>
      <point x="349.0" y="528.0" type="curve" smooth="yes"/>
      <point x="349.0" y="456.0"/>
      <point x="326.0" y="396.0"/>
    </contour>
    <contour>
      <point x="254.0" y="348.0" type="line"/>
      <point x="340.0" y="348.0"/>
      <point x="371.0" y="287.0"/>
      <point x="371.0" y="209.0" type="curve" smooth="yes"/>
      <point x="371.0" y="112.0"/>
      <point x="332.0" y="58.0"/>
      <point x="238.0" y="58.0" type="curve" smooth="yes"/>
      <point x="133.0" y="58.0" type="line"/>
      <point x="133.0" y="348.0" type="line"/>
    </contour>
    <contour>
      <point x="205.0" y="790.0" type="line"/>
      <point x="205.0" y="681.0" type="line"/>
      <point x="210.0" y="666.0" type="line"/>
      <point x="210.0" y="41.0" type="line"/>
      <point x="205.0" y="31.0" type="line"/>
      <point x="205.0" y="-112.0" type="line"/>
      <point x="259.0" y="-112.0" type="line"/>
      <point x="259.0" y="33.0" type="line"/>
      <point x="254.0" y="44.0" type="line"/>
      <point x="254.0" y="668.0" type="line"/>
      <point x="259.0" y="678.0" type="line"/>
      <point x="259.0" y="790.0" type="line"/>
    </contour>
    <contour>
      <point x="234.0" y="363.0" type="line"/>
      <point x="362.0" y="363.0"/>
      <point x="428.0" y="431.0"/>
      <point x="428.0" y="532.0" type="curve" smooth="yes"/>
      <point x="428.0" y="637.0"/>
      <point x="361.0" y="702.0"/>
      <point x="232.0" y="702.0" type="curve"/>
      <point x="0.0" y="702.0" type="line"/>
      <point x="0.0" y="658.0" type="line"/>
      <point x="8.0" y="658.0" type="line" smooth="yes"/>
      <point x="35.0" y="658.0"/>
      <point x="55.0" y="651.0"/>
      <point x="55.0" y="622.0" type="curve" smooth="yes"/>
      <point x="55.0" y="88.0" type="line" smooth="yes"/>
      <point x="55.0" y="59.0"/>
      <point x="35.0" y="52.0"/>
      <point x="8.0" y="52.0" type="curve" smooth="yes"/>
      <point x="0.0" y="52.0" type="line"/>
      <point x="0.0" y="8.0" type="line"/>
      <point x="239.0" y="8.0" type="line" smooth="yes"/>
      <point x="378.0" y="8.0"/>
      <point x="451.0" y="84.0"/>
      <point x="451.0" y="207.0" type="curve" smooth="yes"/>
      <point x="451.0" y="316.0"/>
      <point x="378.0" y="386.0"/>
      <point x="240.0" y="386.0" type="curve"/>
      <point x="291.0" y="363.0" type="line"/>
      <point x="291.0" y="388.0" type="line"/>
    </contour>
  </outline>
</glyph>
<glyph name="acute.pl" format="2">
  <advance width="412"/>
  <anchor x="175" y="489" name="_top"/>
  <outline>
    <contour>
      <point x="158.0" y="683.0" type="curve" smooth="yes"/>
      <point x="155.0" y="587.0" type="line"/>
      <point x="155.0" y="568.0" type="line"/>
      <point x="184.0" y="568.0" type="line"/>
      <point x="220.0" y="661.0" type="line" smooth="yes"/>
      <point x="233.0" y="686.0"/>
      <point x="241.0" y="705.0"/>
      <point x="241.0" y="722.0" type="curve" smooth="yes"/>
      <point x="241.0" y="745.0"/>
      <point x="226.0" y="758.0"/>
      <point x="202.0" y="758.0" type="curve" smooth="yes"/>
      <point x="173.0" y="758.0"/>
      <point x="160.0" y="734.0"/>
    </contour>
  </outline>
</glyph>
<glyph name="breve_hook.uc" format="2">
  <advance width="420"/>
  <anchor x="206" y="724" name="_top"/>
  <outline>
    <contour>
      <point x="129.0" y="984.0" type="line"/>
      <point x="132.0" y="1023.0"/>
      <point x="159.0" y="1056.0"/>
      <point x="212.0" y="1056.0" type="curve" smooth="yes"/>
      <point x="266.0" y="1056.0"/>
      <point x="297.0" y="1029.0"/>
      <point x="297.0" y="987.0" type="curve" smooth="yes"/>
      <point x="297.0" y="935.0"/>
      <point x="254.0" y="915.0"/>
      <point x="207.0" y="912.0" type="curve"/>
      <point x="229.0" y="935.0" type="line"/>
      <point x="229.0" y="884.0" type="line"/>
      <point x="185.0" y="884.0" type="line"/>
      <point x="185.0" y="942.0" type="line"/>
      <point x="223.0" y="944.0"/>
      <point x="238.0" y="957.0"/>
      <point x="238.0" y="985.0" type="curve" smooth="yes"/>
      <point x="238.0" y="1005.0"/>
      <point x="229.0" y="1018.0"/>
      <point x="211.0" y="1018.0" type="curve" smooth="yes"/>
      <point x="192.0" y="1018.0"/>
      <point x="183.0" y="1003.0"/>
      <point x="181.0" y="984.0" type="curve"/>
    </contour>
    <contour>
      <point x="206.0" y="759.0" type="curve" smooth="yes"/>
      <point x="136.0" y="759.0"/>
      <point x="90.0" y="800.0"/>
      <point x="84.0" y="883.0" type="curve"/>
      <point x="140.0" y="883.0" type="line"/>
      <point x="146.0" y="835.0"/>
      <point x="168.0" y="820.0"/>
      <point x="209.0" y="820.0" type="curve" smooth="yes"/>
      <point x="249.0" y="820.0"/>
      <point x="270.0" y="835.0"/>
      <point x="276.0" y="883.0" type="curve"/>
      <point x="327.0" y="883.0" type="line"/>
      <point x="321.0" y="800.0"/>
      <point x="276.0" y="759.0"/>
    </contour>
  </outline>
</glyph>
<glyph name="circumflex_tilde" format="2">
  <advance width="412"/>
  <anchor x="200" y="551" name="_top"/>
  <outline>
    <contour>
      <point x="263.0" y="769.0" type="curve" smooth="yes"/>
      <point x="309.0" y="769.0"/>
      <point x="339.0" y="810.0"/>
      <point x="354.0" y="878.0" type="curve"/>
      <point x="311.0" y="893.0" type="line"/>
      <point x="302.0" y="854.0"/>
      <point x="292.0" y="828.0"/>
      <point x="269.0" y="828.0" type="curve" smooth="yes"/>
      <point x="236.0" y="828.0"/>
      <point x="209.0" y="891.0"/>
      <point x="157.0" y="891.0" type="curve" smooth="yes"/>
      <point x="107.0" y="891.0"/>
      <point x="82.0" y="853.0"/>
      <point x="70.0" y="782.0" type="curve"/>
      <point x="112.0" y="767.0" type="line"/>
      <point x="119.0" y="810.0"/>
      <point x="130.0" y="834.0"/>
      <point x="152.0" y="834.0" type="curve" smooth="yes"/>
      <point x="180.0" y="834.0"/>
      <point x="206.0" y="769.0"/>
    </contour>
    <contour>
      <point x="244.0" y="723.0" type="line"/>
      <point x="334.0" y="586.0" type="line"/>
      <point x="334.0" y="576.0" type="line"/>
      <point x="291.0" y="576.0" type="line"/>
      <point x="190.0" y="678.0" type="line"/>
      <point x="217.0" y="678.0" type="line"/>
      <point x="115.0" y="576.0" type="line"/>
      <point x="81.0" y="576.0" type="line"/>
      <point x="81.0" y="586.0" type="line"/>
      <point x="171.0" y="723.0" type="line"/>
    </contour>
  </outline>
</glyph>
